<svg xmlns="http://www.w3.org/2000/svg" viewBox="0 0 64 64" role="img" aria-label="GoodHamburguer favicon">
  <defs>
    <linearGradient id="bg" x1="12" y1="8" x2="52" y2="58" gradientUnits="userSpaceOnUse">
      <stop offset="0" stop-color="#282a2b"/>
      <stop offset="1" stop-color="#0c0f0f"/>
    </linearGradient>
    <linearGradient id="bun" x1="16" y1="18" x2="48" y2="38" gradientUnits="userSpaceOnUse">
      <stop offset="0" stop-color="#ffdb9d"/>
      <stop offset="1" stop-color="#feb700"/>
    </linearGradient>
    <linearGradient id="meat" x1="16" y1="34" x2="48" y2="45" gradientUnits="userSpaceOnUse">
      <stop offset="0" stop-color="#be1e2d"/>
      <stop offset="1" stop-color="#7f101c"/>
    </linearGradient>
  </defs>
  <rect width="64" height="64" rx="14" fill="url(#bg)"/>
  <rect x="7" y="7" width="50" height="50" rx="12" fill="none" stroke="#aa8987" stroke-opacity=".28"/>
  <path d="M15 33c1.2-9.6 8.4-16 17-16s15.8 6.4 17 16H15Z" fill="url(#bun)"/>
  <path d="M17 34h30c1.7 0 3 1.3 3 3s-1.3 3-3 3H17c-1.7 0-3-1.3-3-3s1.3-3 3-3Z" fill="#ffdb9d"/>
  <path d="M16 40h32c2.2 0 4 1.6 4 3.6S50.2 47 48 47H16c-2.2 0-4-1.5-4-3.4S13.8 40 16 40Z" fill="url(#meat)"/>
  <path d="M18 48h28c1.6 0 3 1.3 3 3s-1.4 3-3 3H18c-1.6 0-3-1.3-3-3s1.4-3 3-3Z" fill="#ffdb9d"/>
  <circle cx="25" cy="25" r="1.5" fill="#fff4dc" opacity=".9"/>
  <circle cx="33" cy="22" r="1.4" fill="#fff4dc" opacity=".85"/>
  <circle cx="40" cy="27" r="1.3" fill="#fff4dc" opacity=".8"/>
  <path d="M21 30c4.2 1.3 9.3 1.9 15.3.9" stroke="#fff4dc" stroke-opacity=".32" stroke-width="2" stroke-linecap="round"/>
</svg>
